<svg width="272" height="144" viewBox="0 0 272 144" fill="none" xmlns="http://www.w3.org/2000/svg">
<g filter="url(#filter0_f_5_10)">
<path d="M17.5 124.858V129.358H42C41.2 81.7575 46 58.8575 48.5 53.3575C50.6667 44.3575 60 26.3575 80 26.3575C100 26.3575 105.333 48.3575 105.5 59.3575L108.5 129.358H171.5C167.9 129.358 167 117.691 167 111.858C171 71.0575 191 57.8575 199.5 54.8575C204.5 52.3575 218.9 46.2575 236.5 63.8575C254.1 81.4575 246.5 114.858 240.5 129.358H261C271 93.3575 262.833 65.0242 257.5 55.3575C237.5 24.3575 220.3 23.3575 219.5 22.8575C215.5 20.3575 194.679 13.8575 182.5 19.3575C167 26.3575 154.5 43.8575 151 53.3575C150.167 57.3575 148.5 68.0575 148.5 78.8575C148.5 89.6575 145.5 96.3575 144 98.3575C139 49.3575 134.5 44.8575 126.5 26.3575C120.1 11.5575 98.8333 5.5242 89 4.35753C84.6667 3.35753 71.8 3.85753 55 13.8575C34 26.3575 29.5 47.8575 27 51.3575C25 54.1575 23.1667 55.1909 22.5 55.3575C20.8333 54.0242 16.3 50.6575 11.5 47.8575C6.7 45.0575 4.5 51.6909 4 55.3575L8.5 106.858L11.5 120.358L17.5 124.858Z" fill="#808E8E" fill-opacity="0.5"/>
</g>
<path d="M68.674 133.303C67.64 133.303 66.794 132.943 66.136 132.222C65.5093 131.533 65.008 130.624 64.632 129.496C64.256 128.368 63.974 127.177 63.786 125.924C63.6293 124.671 63.5353 123.48 63.504 122.352C63.4727 121.224 63.457 120.315 63.457 119.626C63.457 117.621 63.5197 115.615 63.645 113.61C63.8017 111.573 64.0523 109.568 64.397 107.594C63.7077 108.785 63.0967 110.101 62.564 111.542C62.0313 112.952 61.5143 114.393 61.013 115.866C60.543 117.307 59.9947 118.67 59.368 119.955C59.18 120.331 58.8667 120.895 58.428 121.647C58.0207 122.399 57.5507 123.182 57.018 123.997C56.4853 124.78 55.937 125.454 55.373 126.018C54.809 126.551 54.3077 126.817 53.869 126.817C52.5843 126.817 51.5503 126.394 50.767 125.548C49.9837 124.702 49.3883 123.637 48.981 122.352C48.5737 121.067 48.2917 119.767 48.135 118.451C48.0097 117.104 47.947 115.96 47.947 115.02C47.947 113.641 48.0097 112.263 48.135 110.884C48.2917 109.505 48.37 108.142 48.37 106.795C48.37 106.106 48.3073 105.432 48.182 104.774C48.0567 104.116 47.994 103.474 47.994 102.847C47.994 102.189 48.2917 101.86 48.887 101.86C49.451 101.86 49.827 102.111 50.015 102.612C50.2343 103.113 50.344 103.677 50.344 104.304C50.3753 104.899 50.391 105.401 50.391 105.808C50.391 107.437 50.2813 109.067 50.062 110.696C49.8427 112.325 49.733 113.97 49.733 115.631C49.733 116.258 49.78 117.119 49.874 118.216C49.968 119.281 50.1403 120.362 50.391 121.459C50.673 122.556 51.0647 123.496 51.566 124.279C52.0987 125.031 52.788 125.407 53.634 125.407C54.01 125.407 54.4487 125.156 54.95 124.655C55.4513 124.154 55.9527 123.558 56.454 122.869C56.9553 122.148 57.394 121.459 57.77 120.801C58.1773 120.143 58.4593 119.642 58.616 119.297C59.7127 116.947 60.731 114.566 61.671 112.153C62.6423 109.74 63.5197 107.296 64.303 104.821C64.6163 103.912 64.867 102.972 65.055 102.001C65.2743 101.03 65.5407 100.105 65.854 99.228C66.0107 98.7267 66.324 98.476 66.794 98.476C67.2013 98.476 67.5147 98.617 67.734 98.899C67.9847 99.1497 68.11 99.463 68.11 99.839C68.11 100.34 68.0003 101.014 67.781 101.86C67.593 102.675 67.3893 103.489 67.17 104.304C66.9507 105.119 66.7783 105.808 66.653 106.372C66.1517 108.691 65.7443 111.025 65.431 113.375C65.149 115.725 65.008 118.091 65.008 120.472C65.008 120.973 65.0237 121.678 65.055 122.587C65.1177 123.496 65.2117 124.483 65.337 125.548C65.4623 126.613 65.666 127.632 65.948 128.603C66.2613 129.574 66.653 130.373 67.123 131C67.593 131.595 68.1883 131.893 68.909 131.893C69.473 131.893 69.9117 131.689 70.225 131.282C70.5383 130.875 70.789 130.467 70.977 130.06C71.1963 129.653 71.4313 129.449 71.682 129.449C71.87 129.449 71.964 129.559 71.964 129.778C71.964 130.248 71.7917 130.749 71.447 131.282C71.1023 131.846 70.6793 132.316 70.178 132.692C69.6767 133.099 69.1753 133.303 68.674 133.303ZM26.891 135.841C24.917 135.841 23.272 135.387 21.956 134.478C20.64 133.601 19.5903 132.441 18.807 131C18.0237 129.559 17.4597 127.992 17.115 126.3C16.7703 124.608 16.598 122.947 16.598 121.318C16.598 120.033 16.739 118.623 17.021 117.088C17.303 115.521 17.726 113.97 18.29 112.435C18.8853 110.9 19.6373 109.49 20.546 108.205C21.4547 106.92 22.52 105.902 23.742 105.15C24.9953 104.367 26.421 103.975 28.019 103.975C29.147 103.975 30.087 104.273 30.839 104.868C31.6223 105.432 32.249 106.168 32.719 107.077C33.2203 107.986 33.565 108.957 33.753 109.991C33.9723 111.025 34.082 111.996 34.082 112.905C34.082 113.187 34.035 113.688 33.941 114.409C33.847 115.098 33.706 115.85 33.518 116.665C33.33 117.448 33.095 118.122 32.813 118.686C32.531 119.25 32.202 119.532 31.826 119.532C31.732 119.532 31.6537 119.485 31.591 119.391C31.5597 119.297 31.544 119.219 31.544 119.156C31.544 119.062 31.6693 118.749 31.92 118.216C32.1707 117.683 32.4057 117.01 32.625 116.195C32.8757 115.38 33.001 114.534 33.001 113.657C33.001 112.999 32.9227 112.216 32.766 111.307C32.6407 110.398 32.4057 109.505 32.061 108.628C31.7163 107.719 31.2463 106.983 30.651 106.419C30.087 105.824 29.3663 105.526 28.489 105.526C27.0477 105.526 25.7473 105.886 24.588 106.607C23.46 107.328 22.473 108.283 21.627 109.474C20.781 110.665 20.076 111.965 19.512 113.375C18.9793 114.785 18.572 116.211 18.29 117.652C18.008 119.062 17.867 120.362 17.867 121.553C17.867 122.838 17.9923 124.248 18.243 125.783C18.4937 127.318 18.9167 128.775 19.512 130.154C20.1387 131.533 21.0003 132.661 22.097 133.538C23.1937 134.415 24.5723 134.854 26.233 134.854C27.7683 134.854 29.2253 134.509 30.604 133.82C31.9827 133.131 33.2673 132.206 34.458 131.047C35.68 129.919 36.7767 128.666 37.748 127.287C38.7507 125.908 39.628 124.498 40.38 123.057C41.132 121.616 41.743 120.268 42.213 119.015L45.644 110.038L46.302 108.299C46.3647 108.142 46.3803 107.986 46.349 107.829C46.349 107.672 46.4117 107.594 46.537 107.594C46.725 107.594 46.866 107.672 46.96 107.829C47.054 107.986 47.101 108.142 47.101 108.299L46.02 111.354C45.5813 112.67 45.1427 114.002 44.704 115.349C44.2967 116.665 43.858 117.981 43.388 119.297C42.918 120.582 42.2913 121.976 41.508 123.48C40.756 124.953 39.863 126.425 38.829 127.898C37.795 129.339 36.6513 130.655 35.398 131.846C34.1447 133.068 32.7973 134.039 31.356 134.76C29.946 135.481 28.4577 135.841 26.891 135.841ZM74.021 131.752C73.4257 131.752 72.9243 131.533 72.517 131.094C72.141 130.655 71.8433 130.123 71.624 129.496C71.4047 128.838 71.248 128.18 71.154 127.522C71.0913 126.864 71.06 126.316 71.06 125.877C71.06 125.407 71.107 124.655 71.201 123.621C71.3263 122.556 71.5143 121.381 71.765 120.096C72.0157 118.811 72.329 117.574 72.705 116.383C73.081 115.161 73.5197 114.143 74.021 113.328C74.5537 112.513 75.1647 112.075 75.854 112.012C75.948 111.73 76.089 111.495 76.277 111.307C76.465 111.088 76.7157 110.978 77.029 110.978C77.6557 110.978 78.204 111.244 78.674 111.777C79.144 112.31 79.5357 112.968 79.849 113.751C80.1623 114.534 80.3973 115.302 80.554 116.054C80.742 116.806 80.836 117.417 80.836 117.887C80.836 119.328 80.695 120.754 80.413 122.164L80.789 122.211C81.6977 122.211 82.4027 122.07 82.904 121.788C83.4053 121.506 83.797 121.24 84.079 120.989C84.361 120.707 84.596 120.566 84.784 120.566C84.972 120.566 85.066 120.676 85.066 120.895C85.066 121.271 84.8623 121.616 84.455 121.929C84.079 122.211 83.609 122.477 83.045 122.728C82.481 122.947 81.9327 123.104 81.4 123.198C80.8673 123.292 80.46 123.308 80.178 123.245C80.0213 123.903 79.755 124.718 79.379 125.689C79.0343 126.629 78.5957 127.569 78.063 128.509C77.5617 129.418 76.9663 130.185 76.277 130.812C75.5877 131.439 74.8357 131.752 74.021 131.752ZM79.144 121.224C79.332 120.127 79.426 119.015 79.426 117.887C79.426 117.636 79.3633 117.213 79.238 116.618C79.144 115.991 78.9873 115.333 78.768 114.644C78.58 113.955 78.345 113.359 78.063 112.858C77.781 112.357 77.4833 112.106 77.17 112.106C77.0133 112.106 76.888 112.231 76.794 112.482C76.7313 112.701 76.6843 112.952 76.653 113.234C76.653 113.516 76.653 113.704 76.653 113.798C76.653 115.051 76.841 116.367 77.217 117.746C77.6243 119.093 78.2667 120.253 79.144 121.224ZM74.162 130.53C74.632 130.53 75.1177 130.217 75.619 129.59C76.1203 128.932 76.5903 128.149 77.029 127.24C77.499 126.3 77.8907 125.407 78.204 124.561C78.5173 123.715 78.721 123.088 78.815 122.681C77.6243 121.866 76.7313 120.77 76.136 119.391C75.572 118.012 75.29 116.602 75.29 115.161C75.29 114.534 75.337 113.939 75.431 113.375C74.773 114.503 74.2247 115.835 73.786 117.37C73.3473 118.905 73.0183 120.472 72.799 122.07C72.611 123.668 72.517 125.125 72.517 126.441C72.517 126.754 72.5483 127.24 72.611 127.898C72.705 128.556 72.8773 129.167 73.128 129.731C73.3787 130.264 73.7233 130.53 74.162 130.53ZM85.4831 131.188C85.2638 131.188 85.0914 131.11 84.9661 130.953C84.8721 130.765 84.8251 130.561 84.8251 130.342C84.8251 128.587 84.9191 126.833 85.1071 125.078C85.3264 123.292 85.4361 121.522 85.4361 119.767C85.4361 119.579 85.4204 119.219 85.3891 118.686C85.3891 118.122 85.3578 117.527 85.2951 116.9C85.2638 116.242 85.2011 115.662 85.1071 115.161C85.0444 114.628 84.9504 114.299 84.8251 114.174C84.6998 114.08 84.5744 113.97 84.4491 113.845C84.3551 113.72 84.3081 113.563 84.3081 113.375C84.3081 113.187 84.3864 113.046 84.5431 112.952C84.7311 112.827 84.9191 112.764 85.1071 112.764C85.6398 112.764 86.0158 113.015 86.2351 113.516C86.4858 113.986 86.6424 114.566 86.7051 115.255C86.7991 115.944 86.8461 116.602 86.8461 117.229C86.8461 120.174 86.7521 123.135 86.5641 126.112C86.6894 125.767 86.9401 125.156 87.3161 124.279C87.6921 123.402 88.1464 122.415 88.6791 121.318C89.2118 120.221 89.7601 119.172 90.3241 118.169C90.9194 117.135 91.4678 116.289 91.9691 115.631C92.4704 114.942 92.8778 114.597 93.1911 114.597C93.6298 114.597 93.9431 114.879 94.1311 115.443C94.3504 115.976 94.4601 116.414 94.4601 116.759C94.4601 118.2 94.3818 119.642 94.2251 121.083C94.0998 122.524 94.0371 123.981 94.0371 125.454C94.0371 125.642 94.0528 126.002 94.0841 126.535C94.1468 127.036 94.2408 127.522 94.3661 127.992C94.5228 128.431 94.7578 128.65 95.0711 128.65C95.3218 128.65 95.6508 128.368 96.0581 127.804C96.4654 127.24 96.8884 126.582 97.3271 125.83C97.7658 125.047 98.1574 124.31 98.5021 123.621C98.8468 122.932 99.0818 122.446 99.2071 122.164C99.2384 122.101 99.2698 122.039 99.3011 121.976C99.3324 121.882 99.3794 121.835 99.4421 121.835C99.5988 121.835 99.6928 121.96 99.7241 122.211C99.7554 122.43 99.7711 122.571 99.7711 122.634C99.7711 122.947 99.5988 123.496 99.2541 124.279C98.9094 125.062 98.4708 125.893 97.9381 126.77C97.4368 127.647 96.9041 128.399 96.3401 129.026C95.8074 129.653 95.3218 129.966 94.8831 129.966C94.2564 129.966 93.7864 129.715 93.4731 129.214C93.1911 128.713 93.0031 128.149 92.9091 127.522C92.8151 126.864 92.7681 126.316 92.7681 125.877C92.7681 124.843 92.8151 123.809 92.9091 122.775C93.0344 121.741 93.0971 120.707 93.0971 119.673C93.0971 119.579 93.0814 119.344 93.0501 118.968C93.0501 118.592 93.0344 118.232 93.0031 117.887C92.9718 117.542 92.8934 117.37 92.7681 117.37C92.4548 117.37 92.0474 117.762 91.5461 118.545C91.0761 119.328 90.5591 120.315 89.9951 121.506C89.4624 122.697 88.9298 123.934 88.3971 125.219C87.8644 126.472 87.3944 127.6 86.9871 128.603C86.6111 129.606 86.3448 130.279 86.1881 130.624C86.1254 130.749 86.0314 130.875 85.9061 131C85.8121 131.125 85.6711 131.188 85.4831 131.188ZM101.61 112.529C101.391 112.529 101.187 112.482 100.999 112.388C100.811 112.263 100.717 112.09 100.717 111.871C100.717 111.62 100.827 111.244 101.046 110.743C101.266 110.21 101.548 109.678 101.892 109.145C102.237 108.612 102.597 108.158 102.973 107.782C103.381 107.406 103.741 107.218 104.054 107.218C104.305 107.218 104.43 107.375 104.43 107.688C104.43 108.064 104.227 108.362 103.819 108.581C103.569 108.738 103.349 109.035 103.161 109.474C103.005 109.913 102.864 110.367 102.738 110.837C102.644 111.307 102.55 111.683 102.456 111.965C102.362 112.341 102.08 112.529 101.61 112.529ZM100.67 130.53C99.9497 130.53 99.417 130.232 99.0724 129.637C98.7277 129.01 98.5084 128.305 98.4144 127.522C98.3204 126.707 98.2734 126.049 98.2734 125.548C98.2734 125.235 98.3047 124.655 98.3674 123.809C98.4614 122.963 98.571 122.023 98.6964 120.989C98.853 119.924 99.0254 118.89 99.2134 117.887C99.4327 116.884 99.6834 116.054 99.9654 115.396C100.247 114.738 100.545 114.409 100.858 114.409C101.109 114.409 101.328 114.487 101.516 114.644C101.704 114.801 101.798 115.004 101.798 115.255C101.798 115.631 101.689 116.226 101.469 117.041C101.25 117.856 100.984 118.78 100.67 119.814C100.388 120.848 100.122 121.898 99.8714 122.963C99.652 123.997 99.5424 124.937 99.5424 125.783C99.5424 126.002 99.558 126.378 99.5894 126.911C99.652 127.444 99.7617 127.945 99.9184 128.415C100.075 128.854 100.326 129.073 100.67 129.073C101.14 129.073 101.657 128.728 102.221 128.039C102.785 127.35 103.349 126.504 103.913 125.501C104.509 124.467 105.057 123.449 105.558 122.446C106.06 121.412 106.483 120.55 106.827 119.861C107.172 119.172 107.407 118.827 107.532 118.827C107.689 118.827 107.783 118.89 107.814 119.015C107.877 119.109 107.908 119.219 107.908 119.344C107.908 119.751 107.736 120.409 107.391 121.318C107.047 122.195 106.592 123.167 106.028 124.232C105.464 125.266 104.853 126.269 104.195 127.24C103.537 128.18 102.895 128.963 102.268 129.59C101.642 130.217 101.109 130.53 100.67 130.53ZM114.184 143.361C113.432 143.361 112.837 143.032 112.398 142.374C111.991 141.716 111.677 140.901 111.458 139.93C111.27 138.99 111.145 138.066 111.082 137.157C111.051 136.248 111.035 135.543 111.035 135.042C111.035 133.663 111.113 132.269 111.27 130.859C111.427 129.449 111.63 128.07 111.881 126.723C111.662 127.162 111.348 127.71 110.941 128.368C110.534 128.995 110.064 129.559 109.531 130.06C109.03 130.53 108.481 130.765 107.886 130.765C107.134 130.765 106.586 130.483 106.241 129.919C105.896 129.324 105.677 128.65 105.583 127.898C105.489 127.115 105.442 126.457 105.442 125.924C105.442 124.608 105.567 123.214 105.818 121.741C106.1 120.237 106.445 118.858 106.852 117.605C107.04 117.104 107.322 116.477 107.698 115.725C108.074 114.942 108.513 114.174 109.014 113.422C109.547 112.639 110.111 111.996 110.706 111.495C111.301 110.962 111.912 110.696 112.539 110.696C114.168 110.696 114.983 111.511 114.983 113.14C114.983 113.359 114.889 113.579 114.701 113.798C114.544 113.986 114.341 114.08 114.09 114.08C113.808 114.08 113.636 114.002 113.573 113.845C113.542 113.688 113.51 113.516 113.479 113.328C113.479 113.109 113.401 112.921 113.244 112.764C113.119 112.607 112.837 112.529 112.398 112.529C111.646 112.529 110.972 112.905 110.377 113.657C109.782 114.409 109.249 115.365 108.779 116.524C108.34 117.683 107.964 118.905 107.651 120.19C107.369 121.443 107.15 122.618 106.993 123.715C106.836 124.78 106.758 125.595 106.758 126.159C106.758 126.441 106.774 126.833 106.805 127.334C106.868 127.835 106.993 128.29 107.181 128.697C107.369 129.104 107.667 129.308 108.074 129.308C108.45 129.308 108.889 128.979 109.39 128.321C109.891 127.663 110.393 126.88 110.894 125.971C111.395 125.062 111.834 124.201 112.21 123.386C112.586 122.54 112.837 121.945 112.962 121.6C113.087 121.255 113.26 120.629 113.479 119.72C113.698 118.811 113.949 117.856 114.231 116.853C114.544 115.85 114.873 114.989 115.218 114.268C115.594 113.547 115.986 113.187 116.393 113.187C116.456 113.187 116.55 113.218 116.675 113.281C116.769 113.344 116.816 113.438 116.816 113.563C116.847 113.688 116.863 113.814 116.863 113.939C116.863 114.722 116.691 115.615 116.346 116.618C116.001 117.589 115.61 118.545 115.171 119.485C114.732 120.425 114.372 121.271 114.09 122.023C113.683 123.151 113.354 124.514 113.103 126.112C112.852 127.679 112.664 129.261 112.539 130.859C112.414 132.457 112.351 133.867 112.351 135.089C112.351 135.371 112.351 135.872 112.351 136.593C112.382 137.345 112.445 138.128 112.539 138.943C112.664 139.758 112.852 140.447 113.103 141.011C113.354 141.606 113.714 141.904 114.184 141.904C114.685 141.904 115.155 141.622 115.594 141.058C116.033 140.525 116.44 139.883 116.816 139.131C117.192 138.41 117.505 137.768 117.756 137.204C118.007 136.671 118.195 136.405 118.32 136.405C118.445 136.405 118.524 136.483 118.555 136.64C118.586 136.797 118.602 136.906 118.602 136.969C118.602 137.345 118.445 137.878 118.132 138.567C117.85 139.256 117.474 139.961 117.004 140.682C116.565 141.434 116.095 142.061 115.594 142.562C115.093 143.095 114.623 143.361 114.184 143.361ZM119.954 129.919C119.453 129.919 119.045 129.715 118.732 129.308C118.45 128.901 118.231 128.399 118.074 127.804C117.917 127.177 117.808 126.582 117.745 126.018C117.714 125.423 117.698 124.953 117.698 124.608C117.698 124.295 117.698 123.981 117.698 123.668C117.729 123.355 117.761 123.041 117.792 122.728C117.917 121.757 118.09 120.801 118.309 119.861C118.528 118.89 118.701 117.918 118.826 116.947C118.889 116.446 118.936 115.96 118.967 115.49C118.998 115.02 119.03 114.534 119.061 114.033C119.092 113.876 119.139 113.735 119.202 113.61C119.265 113.453 119.39 113.375 119.578 113.375C119.923 113.375 120.126 113.532 120.189 113.845C120.283 114.127 120.33 114.393 120.33 114.644C120.33 115.772 120.22 116.884 120.001 117.981C119.782 119.078 119.562 120.174 119.343 121.271C119.124 122.368 119.014 123.48 119.014 124.608C119.014 124.733 119.014 125.015 119.014 125.454C119.045 125.861 119.092 126.316 119.155 126.817C119.218 127.287 119.312 127.694 119.437 128.039C119.594 128.384 119.782 128.556 120.001 128.556C120.283 128.556 120.643 128.227 121.082 127.569C121.552 126.911 122.022 126.128 122.492 125.219C122.993 124.279 123.432 123.417 123.808 122.634C124.215 121.819 124.482 121.271 124.607 120.989C125.046 120.018 125.328 119.125 125.453 118.31C125.61 117.495 125.719 116.743 125.782 116.054C125.845 115.333 126.001 114.628 126.252 113.939C126.409 113.563 126.644 113.375 126.957 113.375C127.427 113.375 127.662 113.657 127.662 114.221C127.662 115.192 127.552 116.367 127.333 117.746C127.114 119.093 127.004 120.425 127.004 121.741V122.775C127.004 122.994 127.004 123.339 127.004 123.809C127.004 124.248 127.035 124.718 127.098 125.219C127.192 125.72 127.317 126.143 127.474 126.488C127.662 126.833 127.928 127.005 128.273 127.005C128.68 127.005 129.088 126.77 129.495 126.3C129.902 125.83 130.278 125.282 130.623 124.655C130.999 124.028 131.312 123.48 131.563 123.01C131.814 122.54 132.002 122.305 132.127 122.305C132.315 122.305 132.409 122.43 132.409 122.681C132.409 122.963 132.252 123.417 131.939 124.044C131.657 124.639 131.281 125.266 130.811 125.924C130.372 126.582 129.902 127.146 129.401 127.616C128.931 128.086 128.524 128.321 128.179 128.321C127.458 128.321 126.91 128.023 126.534 127.428C126.189 126.833 125.939 126.096 125.782 125.219C125.657 124.342 125.594 123.496 125.594 122.681C125.594 121.835 125.594 121.177 125.594 120.707C125.469 121.083 125.265 121.647 124.983 122.399C124.701 123.12 124.372 123.919 123.996 124.796C123.62 125.642 123.213 126.457 122.774 127.24C122.335 128.023 121.865 128.666 121.364 129.167C120.894 129.668 120.424 129.919 119.954 129.919ZM136.07 131C135.224 131 134.566 130.624 134.096 129.872C133.657 129.12 133.36 128.211 133.203 127.146C133.046 126.049 132.968 125.031 132.968 124.091C132.968 123.652 132.968 123.261 132.968 122.916C132.999 122.54 133.031 122.227 133.062 121.976H132.921C132.545 121.976 132.357 121.835 132.357 121.553C132.42 121.396 132.529 121.271 132.686 121.177C132.874 121.052 133.046 120.973 133.203 120.942C133.36 119.563 133.657 118.153 134.096 116.712C134.535 115.271 135.13 113.97 135.882 112.811V112.529C135.882 112.216 136.07 112.028 136.446 111.965C136.603 111.808 136.759 111.636 136.916 111.448C137.104 111.229 137.308 111.119 137.527 111.119C137.778 111.119 137.966 111.229 138.091 111.448C138.248 111.636 138.263 111.84 138.138 112.059C138.733 112.184 139.266 112.435 139.736 112.811C140.237 113.156 140.488 113.673 140.488 114.362C140.488 115.271 140.143 116.211 139.454 117.182C138.796 118.122 137.997 118.984 137.057 119.767C136.148 120.519 135.318 121.083 134.566 121.459C134.472 122.211 134.409 122.979 134.378 123.762C134.378 124.514 134.378 125.266 134.378 126.018C134.378 126.394 134.394 126.864 134.425 127.428C134.488 127.992 134.629 128.493 134.848 128.932C135.099 129.371 135.506 129.59 136.07 129.59C136.665 129.59 137.245 129.324 137.809 128.791C138.404 128.258 138.968 127.585 139.501 126.77C140.065 125.924 140.582 125.047 141.052 124.138C141.522 123.229 141.929 122.368 142.274 121.553C142.619 120.738 142.869 120.112 143.026 119.673C143.089 119.516 143.167 119.375 143.261 119.25C143.355 119.093 143.496 119.015 143.684 119.015C143.935 119.015 144.06 119.172 144.06 119.485C144.06 119.986 143.888 120.707 143.543 121.647C143.198 122.556 142.728 123.543 142.133 124.608C141.569 125.673 140.927 126.692 140.206 127.663C139.517 128.634 138.812 129.433 138.091 130.06C137.37 130.687 136.697 131 136.07 131ZM134.801 120.002C135.396 119.626 135.992 119.156 136.587 118.592C137.182 118.028 137.684 117.386 138.091 116.665C138.498 115.944 138.702 115.224 138.702 114.503C138.702 114.127 138.514 113.861 138.138 113.704C137.762 113.516 137.433 113.406 137.151 113.375C136.556 114.346 136.054 115.412 135.647 116.571C135.271 117.73 134.989 118.874 134.801 120.002ZM165.954 133.585C163.572 133.585 161.661 133.052 160.22 131.987C158.81 130.922 157.791 129.496 157.165 127.71C156.569 125.924 156.272 123.966 156.272 121.835C156.272 120.206 156.444 118.592 156.789 116.994C157.165 115.396 157.682 113.845 158.34 112.341C158.81 111.213 159.468 109.975 160.314 108.628C161.16 107.281 162.131 105.949 163.228 104.633C164.324 103.286 165.499 102.064 166.753 100.967C168.037 99.8703 169.369 98.993 170.748 98.335C172.126 97.6457 173.505 97.301 174.884 97.301C176.544 97.301 177.829 97.818 178.738 98.852C179.678 99.886 180.148 101.202 180.148 102.8C180.148 104.053 179.866 105.385 179.302 106.795C178.769 108.205 178.033 109.537 177.093 110.79C176.153 112.012 175.056 113.015 173.803 113.798C172.581 114.581 171.28 114.973 169.902 114.973C169.024 114.973 168.351 114.722 167.881 114.221C167.411 113.72 167.176 113.03 167.176 112.153C167.176 111.934 167.223 111.558 167.317 111.025C167.411 110.492 167.552 109.944 167.74 109.38C167.928 108.785 168.131 108.283 168.351 107.876C168.57 107.437 168.789 107.218 169.009 107.218C169.134 107.218 169.212 107.281 169.244 107.406C169.275 107.5 169.291 107.594 169.291 107.688C169.291 108.377 169.103 109.067 168.727 109.756C168.351 110.445 168.163 111.197 168.163 112.012C168.163 112.639 168.335 113.156 168.68 113.563C169.024 113.97 169.526 114.174 170.184 114.174C171.374 114.174 172.487 113.814 173.521 113.093C174.586 112.341 175.526 111.385 176.341 110.226C177.155 109.067 177.798 107.86 178.268 106.607C178.738 105.322 178.973 104.147 178.973 103.082C178.973 101.829 178.581 100.795 177.798 99.98C177.046 99.134 176.027 98.711 174.743 98.711C173.489 98.711 172.22 99.04 170.936 99.698C169.682 100.325 168.46 101.171 167.27 102.236C166.11 103.27 165.014 104.414 163.98 105.667C162.977 106.92 162.1 108.189 161.348 109.474C160.596 110.727 160 111.887 159.562 112.952C158.966 114.362 158.496 115.819 158.152 117.323C157.838 118.796 157.682 120.3 157.682 121.835C157.682 123.652 157.932 125.36 158.434 126.958C158.966 128.525 159.844 129.794 161.066 130.765C162.288 131.705 163.933 132.175 166.001 132.175H166.471C167.912 132.175 169.353 131.752 170.795 130.906C172.236 130.029 173.615 128.916 174.931 127.569C176.247 126.222 177.422 124.843 178.456 123.433C179.521 121.992 180.398 120.707 181.088 119.579C181.526 118.858 181.902 118.138 182.216 117.417C182.56 116.665 182.921 115.929 183.297 115.208C183.359 115.114 183.438 115.004 183.532 114.879C183.626 114.754 183.735 114.691 183.861 114.691C183.923 114.879 183.955 115.036 183.955 115.161C183.955 115.349 183.923 115.506 183.861 115.631C183.453 116.884 182.811 118.294 181.934 119.861C181.056 121.428 180.007 123.01 178.785 124.608C177.563 126.206 176.231 127.694 174.79 129.073C173.38 130.42 171.907 131.501 170.372 132.316C168.868 133.162 167.395 133.585 165.954 133.585ZM187.528 131.752C186.932 131.752 186.431 131.533 186.024 131.094C185.648 130.655 185.35 130.123 185.131 129.496C184.911 128.838 184.755 128.18 184.661 127.522C184.598 126.864 184.567 126.316 184.567 125.877C184.567 125.407 184.614 124.655 184.708 123.621C184.833 122.556 185.021 121.381 185.272 120.096C185.522 118.811 185.836 117.574 186.212 116.383C186.588 115.161 187.026 114.143 187.528 113.328C188.06 112.513 188.671 112.075 189.361 112.012C189.455 111.73 189.596 111.495 189.784 111.307C189.972 111.088 190.222 110.978 190.536 110.978C191.162 110.978 191.711 111.244 192.181 111.777C192.651 112.31 193.042 112.968 193.356 113.751C193.669 114.534 193.904 115.302 194.061 116.054C194.249 116.806 194.343 117.417 194.343 117.887C194.343 119.328 194.202 120.754 193.92 122.164L194.296 122.211C195.204 122.211 195.909 122.07 196.411 121.788C196.912 121.506 197.304 121.24 197.586 120.989C197.868 120.707 198.103 120.566 198.291 120.566C198.479 120.566 198.573 120.676 198.573 120.895C198.573 121.271 198.369 121.616 197.962 121.929C197.586 122.211 197.116 122.477 196.552 122.728C195.988 122.947 195.439 123.104 194.907 123.198C194.374 123.292 193.967 123.308 193.685 123.245C193.528 123.903 193.262 124.718 192.886 125.689C192.541 126.629 192.102 127.569 191.57 128.509C191.068 129.418 190.473 130.185 189.784 130.812C189.094 131.439 188.342 131.752 187.528 131.752ZM192.651 121.224C192.839 120.127 192.933 119.015 192.933 117.887C192.933 117.636 192.87 117.213 192.745 116.618C192.651 115.991 192.494 115.333 192.275 114.644C192.087 113.955 191.852 113.359 191.57 112.858C191.288 112.357 190.99 112.106 190.677 112.106C190.52 112.106 190.395 112.231 190.301 112.482C190.238 112.701 190.191 112.952 190.16 113.234C190.16 113.516 190.16 113.704 190.16 113.798C190.16 115.051 190.348 116.367 190.724 117.746C191.131 119.093 191.773 120.253 192.651 121.224ZM187.669 130.53C188.139 130.53 188.624 130.217 189.126 129.59C189.627 128.932 190.097 128.149 190.536 127.24C191.006 126.3 191.397 125.407 191.711 124.561C192.024 123.715 192.228 123.088 192.322 122.681C191.131 121.866 190.238 120.77 189.643 119.391C189.079 118.012 188.797 116.602 188.797 115.161C188.797 114.534 188.844 113.939 188.938 113.375C188.28 114.503 187.731 115.835 187.293 117.37C186.854 118.905 186.525 120.472 186.306 122.07C186.118 123.668 186.024 125.125 186.024 126.441C186.024 126.754 186.055 127.24 186.118 127.898C186.212 128.556 186.384 129.167 186.635 129.731C186.885 130.264 187.23 130.53 187.669 130.53ZM199.037 129.919C198.536 129.919 198.128 129.715 197.815 129.308C197.533 128.901 197.314 128.399 197.157 127.804C197 127.177 196.891 126.582 196.828 126.018C196.797 125.423 196.781 124.953 196.781 124.608C196.781 124.295 196.781 123.981 196.781 123.668C196.812 123.355 196.844 123.041 196.875 122.728C197 121.757 197.173 120.801 197.392 119.861C197.611 118.89 197.784 117.918 197.909 116.947C197.972 116.446 198.019 115.96 198.05 115.49C198.081 115.02 198.113 114.534 198.144 114.033C198.175 113.876 198.222 113.735 198.285 113.61C198.348 113.453 198.473 113.375 198.661 113.375C199.006 113.375 199.209 113.532 199.272 113.845C199.366 114.127 199.413 114.393 199.413 114.644C199.413 115.772 199.303 116.884 199.084 117.981C198.865 119.078 198.645 120.174 198.426 121.271C198.207 122.368 198.097 123.48 198.097 124.608C198.097 124.733 198.097 125.015 198.097 125.454C198.128 125.861 198.175 126.316 198.238 126.817C198.301 127.287 198.395 127.694 198.52 128.039C198.677 128.384 198.865 128.556 199.084 128.556C199.366 128.556 199.726 128.227 200.165 127.569C200.635 126.911 201.105 126.128 201.575 125.219C202.076 124.279 202.515 123.417 202.891 122.634C203.298 121.819 203.565 121.271 203.69 120.989C204.129 120.018 204.411 119.125 204.536 118.31C204.693 117.495 204.802 116.743 204.865 116.054C204.928 115.333 205.084 114.628 205.335 113.939C205.492 113.563 205.727 113.375 206.04 113.375C206.51 113.375 206.745 113.657 206.745 114.221C206.745 115.192 206.635 116.367 206.416 117.746C206.197 119.093 206.087 120.425 206.087 121.741V122.775C206.087 122.994 206.087 123.339 206.087 123.809C206.087 124.248 206.118 124.718 206.181 125.219C206.275 125.72 206.4 126.143 206.557 126.488C206.745 126.833 207.011 127.005 207.356 127.005C207.763 127.005 208.171 126.77 208.578 126.3C208.985 125.83 209.361 125.282 209.706 124.655C210.082 124.028 210.395 123.48 210.646 123.01C210.897 122.54 211.085 122.305 211.21 122.305C211.398 122.305 211.492 122.43 211.492 122.681C211.492 122.963 211.335 123.417 211.022 124.044C210.74 124.639 210.364 125.266 209.894 125.924C209.455 126.582 208.985 127.146 208.484 127.616C208.014 128.086 207.607 128.321 207.262 128.321C206.541 128.321 205.993 128.023 205.617 127.428C205.272 126.833 205.022 126.096 204.865 125.219C204.74 124.342 204.677 123.496 204.677 122.681C204.677 121.835 204.677 121.177 204.677 120.707C204.552 121.083 204.348 121.647 204.066 122.399C203.784 123.12 203.455 123.919 203.079 124.796C202.703 125.642 202.296 126.457 201.857 127.24C201.418 128.023 200.948 128.666 200.447 129.167C199.977 129.668 199.507 129.919 199.037 129.919ZM216.14 130.201C215.451 130.201 214.903 129.966 214.495 129.496C214.088 128.995 213.775 128.384 213.555 127.663C213.367 126.911 213.242 126.175 213.179 125.454C213.117 124.702 213.085 124.091 213.085 123.621C213.085 121.929 213.148 120.221 213.273 118.498C213.43 116.775 213.587 115.067 213.743 113.375C213.211 113.594 212.694 113.845 212.192 114.127C211.722 114.409 211.284 114.769 210.876 115.208C210.814 115.271 210.735 115.333 210.641 115.396C210.579 115.459 210.485 115.49 210.359 115.49C210.14 115.49 209.921 115.38 209.701 115.161C209.513 114.942 209.419 114.722 209.419 114.503C209.419 114.221 209.607 113.939 209.983 113.657C210.359 113.344 210.814 113.062 211.346 112.811C211.91 112.529 212.427 112.294 212.897 112.106C213.399 111.918 213.743 111.793 213.931 111.73C213.963 111.479 214.025 111.009 214.119 110.32C214.245 109.599 214.386 108.8 214.542 107.923C214.699 107.014 214.871 106.153 215.059 105.338C215.279 104.492 215.498 103.803 215.717 103.27C215.937 102.706 216.156 102.424 216.375 102.424C216.595 102.424 216.814 102.502 217.033 102.659C217.253 102.816 217.362 103.004 217.362 103.223C217.362 103.317 217.284 103.709 217.127 104.398C216.971 105.087 216.767 105.902 216.516 106.842C216.297 107.751 216.093 108.612 215.905 109.427C215.749 110.242 215.639 110.806 215.576 111.119C216.955 110.712 218.271 110.383 219.524 110.132C220.809 109.881 222.156 109.756 223.566 109.756C223.692 109.756 223.927 109.756 224.271 109.756C224.616 109.756 224.945 109.772 225.258 109.803C225.603 109.834 225.775 109.897 225.775 109.991C225.462 110.116 225.117 110.21 224.741 110.273C224.397 110.336 224.052 110.383 223.707 110.414C222.203 110.539 220.778 110.821 219.43 111.26C218.114 111.699 216.767 112.184 215.388 112.717C215.169 114.503 214.981 116.32 214.824 118.169C214.668 119.986 214.589 121.788 214.589 123.574C214.589 123.919 214.605 124.389 214.636 124.984C214.668 125.548 214.73 126.128 214.824 126.723C214.918 127.287 215.075 127.773 215.294 128.18C215.514 128.587 215.827 128.791 216.234 128.791C216.767 128.791 217.315 128.493 217.879 127.898C218.443 127.271 219.007 126.519 219.571 125.642C220.135 124.733 220.652 123.825 221.122 122.916C221.592 122.007 222 121.24 222.344 120.613C222.72 119.986 222.971 119.657 223.096 119.626V119.767C223.096 120.237 222.94 120.895 222.626 121.741C222.313 122.587 221.89 123.496 221.357 124.467C220.856 125.407 220.292 126.316 219.665 127.193C219.07 128.07 218.459 128.791 217.832 129.355C217.237 129.919 216.673 130.201 216.14 130.201ZM224.097 129.919C223.596 129.919 223.189 129.715 222.875 129.308C222.593 128.901 222.374 128.399 222.217 127.804C222.061 127.177 221.951 126.582 221.888 126.018C221.857 125.423 221.841 124.953 221.841 124.608C221.841 124.295 221.841 123.981 221.841 123.668C221.873 123.355 221.904 123.041 221.935 122.728C222.061 121.757 222.233 120.801 222.452 119.861C222.672 118.89 222.844 117.918 222.969 116.947C223.032 116.446 223.079 115.96 223.11 115.49C223.142 115.02 223.173 114.534 223.204 114.033C223.236 113.876 223.283 113.735 223.345 113.61C223.408 113.453 223.533 113.375 223.721 113.375C224.066 113.375 224.27 113.532 224.332 113.845C224.426 114.127 224.473 114.393 224.473 114.644C224.473 115.772 224.364 116.884 224.144 117.981C223.925 119.078 223.706 120.174 223.486 121.271C223.267 122.368 223.157 123.48 223.157 124.608C223.157 124.733 223.157 125.015 223.157 125.454C223.189 125.861 223.236 126.316 223.298 126.817C223.361 127.287 223.455 127.694 223.58 128.039C223.737 128.384 223.925 128.556 224.144 128.556C224.426 128.556 224.787 128.227 225.225 127.569C225.695 126.911 226.165 126.128 226.635 125.219C227.137 124.279 227.575 123.417 227.951 122.634C228.359 121.819 228.625 121.271 228.75 120.989C229.189 120.018 229.471 119.125 229.596 118.31C229.753 117.495 229.863 116.743 229.925 116.054C229.988 115.333 230.145 114.628 230.395 113.939C230.552 113.563 230.787 113.375 231.1 113.375C231.57 113.375 231.805 113.657 231.805 114.221C231.805 115.192 231.696 116.367 231.476 117.746C231.257 119.093 231.147 120.425 231.147 121.741V122.775C231.147 122.994 231.147 123.339 231.147 123.809C231.147 124.248 231.179 124.718 231.241 125.219C231.335 125.72 231.461 126.143 231.617 126.488C231.805 126.833 232.072 127.005 232.416 127.005C232.824 127.005 233.231 126.77 233.638 126.3C234.046 125.83 234.422 125.282 234.766 124.655C235.142 124.028 235.456 123.48 235.706 123.01C235.957 122.54 236.145 122.305 236.27 122.305C236.458 122.305 236.552 122.43 236.552 122.681C236.552 122.963 236.396 123.417 236.082 124.044C235.8 124.639 235.424 125.266 234.954 125.924C234.516 126.582 234.046 127.146 233.544 127.616C233.074 128.086 232.667 128.321 232.322 128.321C231.602 128.321 231.053 128.023 230.677 127.428C230.333 126.833 230.082 126.096 229.925 125.219C229.8 124.342 229.737 123.496 229.737 122.681C229.737 121.835 229.737 121.177 229.737 120.707C229.612 121.083 229.408 121.647 229.126 122.399C228.844 123.12 228.515 123.919 228.139 124.796C227.763 125.642 227.356 126.457 226.917 127.24C226.479 128.023 226.009 128.666 225.507 129.167C225.037 129.668 224.567 129.919 224.097 129.919ZM238.757 130.859C238.537 130.859 238.365 130.781 238.24 130.624C238.114 130.467 238.052 130.279 238.052 130.06C238.052 128.869 238.099 127.679 238.193 126.488C238.318 125.266 238.381 124.06 238.381 122.869C238.381 122.086 238.349 121.099 238.287 119.908C238.255 118.686 238.146 117.495 237.958 116.336C237.801 115.145 237.519 114.237 237.112 113.61C237.08 113.547 237.049 113.5 237.018 113.469C236.986 113.406 236.971 113.344 236.971 113.281C236.971 113.093 237.065 112.968 237.253 112.905C237.441 112.811 237.597 112.764 237.723 112.764C238.161 112.764 238.506 113.015 238.757 113.516C239.007 114.017 239.195 114.66 239.321 115.443C239.446 116.226 239.524 117.041 239.556 117.887C239.618 118.702 239.65 119.454 239.65 120.143C239.65 120.801 239.65 121.255 239.65 121.506C239.65 121.819 239.65 122.117 239.65 122.399C239.681 122.681 239.697 122.979 239.697 123.292C239.822 122.853 240.041 122.18 240.355 121.271C240.668 120.362 241.044 119.36 241.483 118.263C241.921 117.135 242.391 116.07 242.893 115.067C243.425 114.033 243.942 113.187 244.444 112.529C244.976 111.871 245.478 111.542 245.948 111.542C246.418 111.542 246.762 111.84 246.982 112.435C247.201 113.03 247.342 113.673 247.405 114.362C247.499 115.051 247.546 115.568 247.546 115.913C247.546 116.132 247.53 116.508 247.499 117.041C247.467 117.542 247.389 118.012 247.264 118.451C247.17 118.89 246.982 119.109 246.7 119.109C246.449 119.109 246.324 118.827 246.324 118.263C246.324 118.012 246.339 117.777 246.371 117.558C246.402 117.339 246.418 117.166 246.418 117.041C246.418 116.884 246.402 116.524 246.371 115.96C246.339 115.365 246.261 114.801 246.136 114.268C246.042 113.735 245.901 113.469 245.713 113.469C245.525 113.469 245.29 113.657 245.008 114.033C244.757 114.378 244.491 114.801 244.209 115.302C243.958 115.772 243.723 116.242 243.504 116.712C243.316 117.151 243.19 117.464 243.128 117.652C242.658 118.811 242.156 120.127 241.624 121.6C241.122 123.073 240.684 124.561 240.308 126.065C239.963 127.538 239.791 128.916 239.791 130.201C239.571 130.64 239.227 130.859 238.757 130.859ZM251.964 131C251.118 131 250.46 130.624 249.99 129.872C249.551 129.12 249.253 128.211 249.097 127.146C248.94 126.049 248.862 125.031 248.862 124.091C248.862 123.652 248.862 123.261 248.862 122.916C248.893 122.54 248.924 122.227 248.956 121.976H248.815C248.439 121.976 248.251 121.835 248.251 121.553C248.313 121.396 248.423 121.271 248.58 121.177C248.768 121.052 248.94 120.973 249.097 120.942C249.253 119.563 249.551 118.153 249.99 116.712C250.428 115.271 251.024 113.97 251.776 112.811V112.529C251.776 112.216 251.964 112.028 252.34 111.965C252.496 111.808 252.653 111.636 252.81 111.448C252.998 111.229 253.201 111.119 253.421 111.119C253.671 111.119 253.859 111.229 253.985 111.448C254.141 111.636 254.157 111.84 254.032 112.059C254.627 112.184 255.16 112.435 255.63 112.811C256.131 113.156 256.382 113.673 256.382 114.362C256.382 115.271 256.037 116.211 255.348 117.182C254.69 118.122 253.891 118.984 252.951 119.767C252.042 120.519 251.212 121.083 250.46 121.459C250.366 122.211 250.303 122.979 250.272 123.762C250.272 124.514 250.272 125.266 250.272 126.018C250.272 126.394 250.287 126.864 250.319 127.428C250.381 127.992 250.522 128.493 250.742 128.932C250.992 129.371 251.4 129.59 251.964 129.59C252.559 129.59 253.139 129.324 253.703 128.791C254.298 128.258 254.862 127.585 255.395 126.77C255.959 125.924 256.476 125.047 256.946 124.138C257.416 123.229 257.823 122.368 258.168 121.553C258.512 120.738 258.763 120.112 258.92 119.673C258.982 119.516 259.061 119.375 259.155 119.25C259.249 119.093 259.39 119.015 259.578 119.015C259.828 119.015 259.954 119.172 259.954 119.485C259.954 119.986 259.781 120.707 259.437 121.647C259.092 122.556 258.622 123.543 258.027 124.608C257.463 125.673 256.82 126.692 256.1 127.663C255.41 128.634 254.705 129.433 253.985 130.06C253.264 130.687 252.59 131 251.964 131ZM250.695 120.002C251.29 119.626 251.885 119.156 252.481 118.592C253.076 118.028 253.577 117.386 253.985 116.665C254.392 115.944 254.596 115.224 254.596 114.503C254.596 114.127 254.408 113.861 254.032 113.704C253.656 113.516 253.327 113.406 253.045 113.375C252.449 114.346 251.948 115.412 251.541 116.571C251.165 117.73 250.883 118.874 250.695 120.002Z" fill="black"/>
<defs>
<filter id="filter0_f_5_10" x="0" y="0" width="269.726" height="133.358" filterUnits="userSpaceOnUse" color-interpolation-filters="sRGB">
<feFlood flood-opacity="0" result="BackgroundImageFix"/>
<feBlend mode="normal" in="SourceGraphic" in2="BackgroundImageFix" result="shape"/>
<feGaussianBlur stdDeviation="2" result="effect1_foregroundBlur_5_10"/>
</filter>
</defs>
</svg>
