<svg width="311" height="311" viewBox="0 0 311 311" fill="none" xmlns="http://www.w3.org/2000/svg">
<path d="M37.5 212.858V217.358H62C61.2 169.758 66 146.858 68.5 141.358C70.6667 132.358 80 114.358 100 114.358C120 114.358 125.333 136.358 125.5 147.358L128.5 217.358H191.5C187.9 217.358 187 205.691 187 199.858C191 159.058 211 145.858 219.5 142.858C224.5 140.358 238.9 134.258 256.5 151.858C274.1 169.458 266.5 202.858 260.5 217.358H281C291 181.358 282.833 153.024 277.5 143.358C257.5 112.358 240.3 111.358 239.5 110.858C235.5 108.358 214.679 101.858 202.5 107.358C187 114.358 174.5 131.858 171 141.358C170.167 145.358 168.5 156.058 168.5 166.858C168.5 177.658 165.5 184.358 164 186.358C159 137.358 154.5 132.858 146.5 114.358C140.1 99.5575 118.833 93.5242 109 92.3575C104.667 91.3575 91.8 91.8575 75 101.858C54 114.358 49.5 135.858 47 139.358C45 142.158 43.1667 143.191 42.5 143.358C40.8333 142.024 36.3 138.658 31.5 135.858C26.7 133.058 24.5 139.691 24 143.358L28.5 194.858L31.5 208.358L37.5 212.858Z" fill="black"/>
</svg>
